<?xml version="1.0" encoding="iso-8859-1"?>
<!-- Generator: Adobe Illustrator 19.0.0, SVG Export Plug-In . SVG Version: 6.00 Build 0)  -->
<svg id="Layer_1" style="enable-background:new 0 0 512.002 512.002;" version="1.1" viewBox="0 0 512.002 512.002"
     x="0px" xml:space="preserve" xmlns="http://www.w3.org/2000/svg" y="0px">
<rect height="511.95" style="fill:#464655;" width="511.95" x="0.052" y="0.026"/>
  <polygon points="256.026,62.498 269.561,133.202 309.122,73.059 294.567,143.561 354.133,103.135   313.707,162.7 384.21,148.147 324.066,187.708 394.771,201.242 324.066,214.776 384.21,254.337 313.707,239.783 354.133,299.349   294.567,258.923 309.122,329.426 269.561,269.282 256.026,339.986 242.492,269.282 202.931,329.426 217.485,258.923   157.919,299.349 198.346,239.783 127.843,254.337 187.987,214.776 117.282,201.242 187.987,187.708 127.843,148.147 198.346,162.7   157.919,103.135 217.485,143.561 202.931,73.059 242.492,133.202 "
           style="fill:#FFE15A;"/>
  <g>
	<polygon points="0,511.974 256.026,511.974 0,0.026  " style="fill:#FF4B55;"/>
    <polygon points="256.026,511.974 511.948,511.974 512,0.026  " style="fill:#FF4B55;"/>
</g>
  <polygon points="154.984,309.89 357.069,309.89 410.958,202.11 101.095,202.11 " style="fill:#4173CD;"/>
  <polygon points="154.984,309.89 256.026,511.974 357.069,309.89 " style="fill:#F5F5F5;"/>
  <g>
</g>
  <g>
</g>
  <g>
</g>
  <g>
</g>
  <g>
</g>
  <g>
</g>
  <g>
</g>
  <g>
</g>
  <g>
</g>
  <g>
</g>
  <g>
</g>
  <g>
</g>
  <g>
</g>
  <g>
</g>
  <g>
</g>
</svg>
