<?xml version="1.0" encoding="iso-8859-1"?>
<!-- Generator: Adobe Illustrator 19.0.0, SVG Export Plug-In . SVG Version: 6.00 Build 0)  -->
<svg id="Layer_1" style="enable-background:new 0 0 512 512;" version="1.1" viewBox="0 0 512 512"
     x="0px" xml:space="preserve" xmlns="http://www.w3.org/2000/svg" y="0px">
<rect height="512" style="fill:#41479B;" width="170.67"/>
  <rect height="512" style="fill:#FFE15A;" width="170.67" x="170.67"/>
  <rect height="512" style="fill:#41479B;" width="170.67" x="341.33"/>
  <path
    d="M326.621,207.256c0,0-24.564,0-42.987,18.423h12.282c0,0-11.898,21.493-18.039,58.339l-12.666-2.067  v-56.454l12.282,4.021L256,176.552l-21.493,52.966l12.282-4.094v56.528l-12.666,2.067c-6.141-36.846-18.039-58.339-18.039-58.339  h12.282c-18.423-18.423-42.987-18.423-42.987-18.423c30.705,36.846,30.705,98.255,30.705,98.255l30.705-5.117v41.962h18.423v-41.962  l30.705,5.117C295.916,305.511,295.916,244.102,326.621,207.256z"
    style="fill:#464655;"/>
  <g>
</g>
  <g>
</g>
  <g>
</g>
  <g>
</g>
  <g>
</g>
  <g>
</g>
  <g>
</g>
  <g>
</g>
  <g>
</g>
  <g>
</g>
  <g>
</g>
  <g>
</g>
  <g>
</g>
  <g>
</g>
  <g>
</g>
</svg>
