<?xml version="1.0" encoding="iso-8859-1"?>
<!-- Generator: Adobe Illustrator 19.0.0, SVG Export Plug-In . SVG Version: 6.00 Build 0)  -->
<svg id="Layer_1" style="enable-background:new 0 0 512 512;" version="1.1" viewBox="0 0 512 512"
     x="0px" xml:space="preserve" xmlns="http://www.w3.org/2000/svg" y="0px">
<rect height="512" style="fill:#41479B;" width="512"/>
  <polygon points="0,512 512,0 0,0 " style="fill:#F5F5F5;"/>
  <polygon points="224.779,0 0,0 0,224.78 " style="fill:#FFE15A;"/>
  <path d="M196.481,223.236c-4.006-26.737-25.089-47.82-51.825-51.825l-9.207-18.416l-9.207,18.416  c-26.737,4.005-47.82,25.088-51.825,51.825L56,232.443l18.415,9.207c4.006,26.737,25.089,47.82,51.825,51.825l9.207,18.416  l9.207-18.416c26.737-4.005,47.82-25.088,51.825-51.825l18.415-9.207L196.481,223.236z M135.448,285.409  c-29.252,0-52.966-23.713-52.966-52.965s23.713-52.966,52.966-52.966s52.966,23.713,52.966,52.966S164.7,285.409,135.448,285.409z"
        style="fill:#464655;"/>
  <polygon points="135.448,198.498 144.953,215.981 164.845,215.471 154.457,232.443 164.845,249.416   144.953,248.905 135.448,266.388 125.944,248.905 106.051,249.416 116.439,232.443 106.051,215.471 125.944,215.981 "
           style="fill:#FF4B55;"/>
  <g>
</g>
  <g>
</g>
  <g>
</g>
  <g>
</g>
  <g>
</g>
  <g>
</g>
  <g>
</g>
  <g>
</g>
  <g>
</g>
  <g>
</g>
  <g>
</g>
  <g>
</g>
  <g>
</g>
  <g>
</g>
  <g>
</g>
</svg>
