<?xml version="1.0" encoding="iso-8859-1"?>
<!-- Generator: Adobe Illustrator 19.0.0, SVG Export Plug-In . SVG Version: 6.00 Build 0)  -->
<svg id="Layer_1" style="enable-background:new 0 0 512 512;" version="1.1" viewBox="0 0 512 512"
     x="0px" xml:space="preserve" xmlns="http://www.w3.org/2000/svg" y="0px">
<rect height="128" style="fill:#FFE15A;" width="512" y="384"/>
  <rect height="128" style="fill:#73AF00;" width="512" y="256"/>
  <rect height="128" style="fill:#F5F5F5;" width="512" y="128"/>
  <rect height="128" style="fill:#41479B;" width="512"/>
  <rect height="512" style="fill:#FF4B55;" width="128" x="192"/>
  <path
    d="M91.062,17.245l11.243,33.71l35.535,0.275c2.753,0.021,3.895,3.535,1.68,5.17l-28.586,21.11  l10.719,33.881c0.83,2.625-2.158,4.796-4.398,3.195l-28.91-20.664l-28.91,20.664c-2.24,1.601-5.228-0.57-4.398-3.195L65.755,77.51  L37.169,56.4c-2.215-1.635-1.073-5.149,1.68-5.17l35.535-0.275l11.243-33.71C86.497,14.633,90.191,14.633,91.062,17.245z"
    style="fill:#FFE15A;"/>
  <g>
</g>
  <g>
</g>
  <g>
</g>
  <g>
</g>
  <g>
</g>
  <g>
</g>
  <g>
</g>
  <g>
</g>
  <g>
</g>
  <g>
</g>
  <g>
</g>
  <g>
</g>
  <g>
</g>
  <g>
</g>
  <g>
</g>
</svg>
