<?xml version="1.0" encoding="iso-8859-1"?>
<!-- Generator: Adobe Illustrator 19.0.0, SVG Export Plug-In . SVG Version: 6.00 Build 0)  -->
<svg id="Layer_1" style="enable-background:new 0 0 512 512;" version="1.1" viewBox="0 0 512 512"
     x="0px" xml:space="preserve" xmlns="http://www.w3.org/2000/svg" y="0px">
<g>
	<rect height="102.4" style="fill:#41479B;" width="512"/>
  <rect height="102.4" style="fill:#41479B;" width="512" y="409.6"/>
</g>
  <rect height="102.4" style="fill:#F5F5F5;" width="512" y="102.4"/>
  <rect height="102.4" style="fill:#41479B;" width="512" y="204.8"/>
  <rect height="102.4" style="fill:#F5F5F5;" width="512" y="307.2"/>
  <path d="M0,512l253.908-250.09c2.789-2.747,2.789-9.074,0-11.821L0,0V512z" style="fill:#FF4B55;"/>
  <path d="M102.751,191.042l13.834,41.479l43.723,0.339c3.387,0.026,4.792,4.349,2.067,6.361l-35.174,25.974  l13.189,41.688c1.022,3.23-2.655,5.901-5.411,3.932l-35.572-25.426l-35.572,25.426c-2.756,1.97-6.433-0.702-5.411-3.932  l13.189-41.688l-35.174-25.974c-2.725-2.012-1.32-6.335,2.067-6.361l43.723-0.339l13.834-41.479  C97.134,187.828,101.679,187.828,102.751,191.042z"
        style="fill:#F5F5F5;"/>
  <g>
</g>
  <g>
</g>
  <g>
</g>
  <g>
</g>
  <g>
</g>
  <g>
</g>
  <g>
</g>
  <g>
</g>
  <g>
</g>
  <g>
</g>
  <g>
</g>
  <g>
</g>
  <g>
</g>
  <g>
</g>
  <g>
</g>
</svg>
