<?xml version="1.0" encoding="iso-8859-1"?>
<!-- Generator: Adobe Illustrator 19.0.0, SVG Export Plug-In . SVG Version: 6.00 Build 0)  -->
<svg id="Layer_1" style="enable-background:new 0 0 512 512;" version="1.1" viewBox="0 0 512 512"
     x="0px" xml:space="preserve" xmlns="http://www.w3.org/2000/svg" y="0px">
<rect height="256" style="fill:#82AFFF;" width="512"/>
  <rect height="256" style="fill:#73AF00;" width="512" y="256"/>
  <polygon points="0,512 256,256 0,0 " style="fill:#F5F5F5;"/>
  <path
    d="M60.158,311.88l12.125-41.391l-35.237-24.871c-1.932-1.364-1.016-4.401,1.347-4.47l43.112-1.259  L94.27,198.69c0.7-2.259,3.872-2.327,4.668-0.1l14.52,40.613l43.126-0.59c2.364-0.032,3.409,2.963,1.538,4.408l-34.138,26.359  l13.888,40.833c0.761,2.239-1.765,4.158-3.718,2.825l-35.618-24.322l-34.543,25.827C62.099,315.958,59.493,314.149,60.158,311.88z"
    style="fill:#FF4B55;"/>
  <g>
</g>
  <g>
</g>
  <g>
</g>
  <g>
</g>
  <g>
</g>
  <g>
</g>
  <g>
</g>
  <g>
</g>
  <g>
</g>
  <g>
</g>
  <g>
</g>
  <g>
</g>
  <g>
</g>
  <g>
</g>
  <g>
</g>
</svg>
