<?xml version="1.0" encoding="iso-8859-1"?>
<!-- Generator: Adobe Illustrator 19.0.0, SVG Export Plug-In . SVG Version: 6.00 Build 0)  -->
<svg id="Layer_1" style="enable-background:new 0 0 512 512;" version="1.1" viewBox="0 0 512 512"
     x="0px" xml:space="preserve" xmlns="http://www.w3.org/2000/svg" y="0px">
<g>
	<rect height="56.807" style="fill:#F5F5F5;" width="512" y="57.177"/>
  <rect height="56.807" style="fill:#F5F5F5;" width="512" y="170.787"/>
  <rect height="56.807" style="fill:#F5F5F5;" width="512" y="284.397"/>
</g>
  <rect height="56.807" style="fill:#41479B;" width="512" y="341.207"/>
  <rect height="56.807" style="fill:#F5F5F5;" width="512" y="398.017"/>
  <g>
	<rect height="56.807" style="fill:#41479B;" width="512" y="454.827"/>
    <polygon points="512,57.173 512,0.366 0,0.366 0,113.98 0,170.788 0,284.402 512,284.402 512,227.595    269.087,227.595 269.087,170.788 512,170.788 512,113.98 269.087,113.98 269.087,57.173  "
             style="fill:#41479B;"/>
</g>
  <polygon points="269.087,113.98 162.946,113.98 162.946,0.366 106.14,0.366 106.14,113.98 0,113.98   0,170.788 106.14,170.788 106.14,284.402 162.946,284.402 162.946,170.788 269.087,170.788 "
           style="fill:#F5F5F5;"/>
  <g>
</g>
  <g>
</g>
  <g>
</g>
  <g>
</g>
  <g>
</g>
  <g>
</g>
  <g>
</g>
  <g>
</g>
  <g>
</g>
  <g>
</g>
  <g>
</g>
  <g>
</g>
  <g>
</g>
  <g>
</g>
  <g>
</g>
</svg>
