<?xml version="1.0" encoding="iso-8859-1"?>
<!-- Generator: Adobe Illustrator 19.0.0, SVG Export Plug-In . SVG Version: 6.00 Build 0)  -->
<svg id="Layer_1" style="enable-background:new 0 0 512 512;" version="1.1" viewBox="0 0 512 512"
     x="0px" xml:space="preserve" xmlns="http://www.w3.org/2000/svg" y="0px">
<rect height="256" style="fill:#FFE15A;" width="512"/>
  <rect height="256" style="fill:#73AF00;" width="512" y="256"/>
  <rect height="512" style="fill:#FF4B55;" width="167.72"/>
  <path
    d="M82.197,211.96l-9.732,29.179l-30.758,0.238c-1.686,0.013-2.385,2.165-1.029,3.167l24.744,18.272  l-9.278,29.327c-0.509,1.608,1.322,2.938,2.694,1.957l25.024-17.886l25.024,17.886c1.372,0.981,3.202-0.349,2.694-1.957  l-9.278-29.327l24.744-18.272c1.357-1.002,0.657-3.154-1.029-3.167l-30.758-0.238l-9.732-29.179  C84.993,210.36,82.731,210.36,82.197,211.96z"
    style="fill:#464655;"/>
  <g>
</g>
  <g>
</g>
  <g>
</g>
  <g>
</g>
  <g>
</g>
  <g>
</g>
  <g>
</g>
  <g>
</g>
  <g>
</g>
  <g>
</g>
  <g>
</g>
  <g>
</g>
  <g>
</g>
  <g>
</g>
  <g>
</g>
</svg>
