<?xml version="1.0" encoding="iso-8859-1"?>
<!-- Generator: Adobe Illustrator 19.0.0, SVG Export Plug-In . SVG Version: 6.00 Build 0)  -->
<svg id="Layer_1" style="enable-background:new 0 0 512 512;" version="1.1" viewBox="0 0 512 512"
     x="0px" xml:space="preserve" xmlns="http://www.w3.org/2000/svg" y="0px">
<rect height="64" style="fill:#F5F5F5;" width="512"/>
  <rect height="64" style="fill:#FF4B55;" width="512" y="64"/>
  <rect height="64" style="fill:#41479B;" width="512" y="128"/>
  <rect height="64" style="fill:#F5F5F5;" width="512" y="192"/>
  <polygon points="512,320 0,320 0,242.526 11.035,242.526 11.034,256 512,256 " style="fill:#FF4B55;"/>
  <rect height="64" style="fill:#F5F5F5;" width="512" y="384"/>
  <rect height="64" style="fill:#FF4B55;" width="512" y="448"/>
  <g>
	<rect height="64" style="fill:#41479B;" width="512" y="320"/>
    <polygon points="94.316,0 0,0 0,19.977 94.316,81.77  " style="fill:#41479B;"/>
    <polygon points="0,68.299 0,94.316 39.71,94.316  " style="fill:#41479B;"/>
    <polygon points="0,161.684 0,187.701 39.71,161.684  " style="fill:#41479B;"/>
    <polygon points="256,19.977 256,0 161.684,0 161.684,81.77  " style="fill:#41479B;"/>
    <polygon points="256,187.701 256,161.684 216.29,161.684  " style="fill:#41479B;"/>
    <polygon points="161.684,174.23 161.684,256 256,256 256,236.023  " style="fill:#41479B;"/>
    <polygon points="256,94.316 256,68.299 216.29,94.316  " style="fill:#41479B;"/>
    <polygon points="0,236.023 0,256 94.316,256 94.316,174.23  " style="fill:#41479B;"/>
</g>
  <g>
	<polygon points="256,236.023 256,216.059 172.232,161.684 196.98,161.684 256,199.995 256,187.701    216.29,161.684 256,161.684 256,148.21 148.211,148.21 148.211,256 161.684,256 161.684,174.23  "
           style="fill:#F5F5F5;"/>
    <polygon points="0,148.21 0,161.684 39.71,161.684 0,187.701 0,206.602 69.197,161.684 93.945,161.684    0,222.666 0,236.023 94.316,174.23 94.316,256 107.789,256 107.789,148.21  "
             style="fill:#F5F5F5;"/>
    <polygon points="107.789,0 94.316,0 94.316,81.77 0,19.977 0,41.839 80.842,94.316 56.094,94.316 0,57.904    0,68.299 39.71,94.316 0,94.316 0,107.79 107.789,107.79  "
             style="fill:#F5F5F5;"/>
    <polygon points="256,107.79 256,94.316 216.29,94.316 256,68.299 256,49.157 186.432,94.316 161.684,94.316    256,33.093 256,19.977 161.684,81.77 161.684,0 148.211,0 148.211,107.79  "
             style="fill:#F5F5F5;"/>
</g>
  <g>
	<polygon points="256,148.21 256,107.79 148.211,107.79 148.211,0 107.789,0 107.789,107.79 0,107.79    0,148.21 107.789,148.21 107.789,256 148.211,256 148.211,148.21  "
           style="fill:#FF4B55;"/>
    <polygon points="69.197,161.684 0,206.602 0,222.666 93.945,161.684  " style="fill:#FF4B55;"/>
    <polygon points="172.232,161.684 256,216.059 256,199.995 196.98,161.684  " style="fill:#FF4B55;"/>
    <polygon points="80.842,94.316 0,41.839 0,57.904 56.094,94.316  " style="fill:#FF4B55;"/>
    <polygon points="186.432,94.316 256,49.157 256,33.093 161.684,94.316  " style="fill:#FF4B55;"/>
</g>
  <g>
</g>
  <g>
</g>
  <g>
</g>
  <g>
</g>
  <g>
</g>
  <g>
</g>
  <g>
</g>
  <g>
</g>
  <g>
</g>
  <g>
</g>
  <g>
</g>
  <g>
</g>
  <g>
</g>
  <g>
</g>
  <g>
</g>
</svg>
