<?xml version="1.0" encoding="iso-8859-1"?>
<!-- Generator: Adobe Illustrator 19.0.0, SVG Export Plug-In . SVG Version: 6.00 Build 0)  -->
<svg id="Layer_1" style="enable-background:new 0 0 512 512;" version="1.1" viewBox="0 0 512 512"
     x="0px" xml:space="preserve" xmlns="http://www.w3.org/2000/svg" y="0px">
<rect height="46.545" style="fill:#FF4B55;" width="512" y="0.004"/>
  <rect height="46.545" style="fill:#F5F5F5;" width="512" y="46.549"/>
  <rect height="46.545" style="fill:#FF4B55;" width="512" y="93.091"/>
  <rect height="46.545" style="fill:#F5F5F5;" width="512" y="139.641"/>
  <path d="M512,232.731H8c-4.418,0-8-3.582-8-8v-38.545h512V232.731z" style="fill:#FF4B55;"/>
  <polygon points="512,279.277 0,279.277 0,215.582 13.471,215.582 13.474,232.731 512,232.731 " style="fill:#F5F5F5;"/>
  <rect height="46.545" style="fill:#FF4B55;" width="512" y="279.271"/>
  <rect height="46.545" style="fill:#F5F5F5;" width="512" y="325.821"/>
  <rect height="46.545" style="fill:#FF4B55;" width="512" y="372.361"/>
  <rect height="46.545" style="fill:#F5F5F5;" width="512" y="418.911"/>
  <rect height="46.545" style="fill:#FF4B55;" width="512" y="465.451"/>
  <rect height="232.73" style="fill:#41479B;" width="229.05" y="0.004"/>
  <path d="M110.677,60.234L97.813,98.805L57.155,99.12c-3.899,0.03-5.516,5.006-2.379,7.322l32.708,24.153  L75.22,169.36c-1.176,3.717,3.056,6.793,6.229,4.525l33.078-23.643l33.078,23.643c3.172,2.267,7.405-0.808,6.229-4.525  l-12.264-38.765l32.708-24.153c3.137-2.316,1.52-7.292-2.379-7.322l-40.658-0.315l-12.865-38.571  C117.142,56.535,111.91,56.535,110.677,60.234z"
        style="fill:#F5F5F5;"/>
  <g>
</g>
  <g>
</g>
  <g>
</g>
  <g>
</g>
  <g>
</g>
  <g>
</g>
  <g>
</g>
  <g>
</g>
  <g>
</g>
  <g>
</g>
  <g>
</g>
  <g>
</g>
  <g>
</g>
  <g>
</g>
  <g>
</g>
</svg>
