<?xml version="1.0" encoding="iso-8859-1"?>
<!-- Generator: Adobe Illustrator 19.0.0, SVG Export Plug-In . SVG Version: 6.00 Build 0)  -->
<svg id="Layer_1" style="enable-background:new 0 0 512 512;" version="1.1" viewBox="0 0 512 512"
     x="0px" xml:space="preserve" xmlns="http://www.w3.org/2000/svg" y="0px">
<rect height="512" style="fill:#41479B;" width="170.67" x="341.33"/>
  <rect height="512" style="fill:#FFE15A;" width="170.67" x="170.67"/>
  <rect height="512" style="fill:#41479B;" width="170.67"/>
  <polygon
    points="300.138,233.931 278.069,233.931 278.069,211.862 291.31,194.207 278.069,194.207   233.931,194.207 220.69,194.207 233.931,211.862 233.931,233.931 211.862,233.931 194.207,220.69 194.207,233.931 194.207,278.069   194.207,291.31 211.862,278.069 233.931,278.069 233.931,300.138 220.69,317.793 233.931,317.793 278.069,317.793 291.31,317.793   278.069,300.138 278.069,278.069 300.138,278.069 317.793,291.31 317.793,278.069 317.793,233.931 317.793,220.69 "
    style="fill:#FF4B55;"/>
  <polygon
    points="300.138,247.172 264.828,247.172 264.828,211.862 247.172,211.862 247.172,247.172   211.862,247.172 211.862,264.828 247.172,264.828 247.172,300.138 264.828,300.138 264.828,264.828 300.138,264.828 "
    style="fill:#F5F5F5;"/>
  <g>
</g>
  <g>
</g>
  <g>
</g>
  <g>
</g>
  <g>
</g>
  <g>
</g>
  <g>
</g>
  <g>
</g>
  <g>
</g>
  <g>
</g>
  <g>
</g>
  <g>
</g>
  <g>
</g>
  <g>
</g>
  <g>
</g>
</svg>
