<?xml version="1.0" encoding="iso-8859-1"?>
<!-- Generator: Adobe Illustrator 19.0.0, SVG Export Plug-In . SVG Version: 6.00 Build 0)  -->
<svg id="Layer_1" style="enable-background:new 0 0 512 512;" version="1.1" viewBox="0 0 512 512"
     x="0px" xml:space="preserve" xmlns="http://www.w3.org/2000/svg" y="0px">
<polygon points="0,390.737 0,0 388.414,0 " style="fill:#41479B;"/>
  <polygon points="512,121.263 512,512 123.586,512 " style="fill:#73AF00;"/>
  <polygon points="512,128.86 512,0 383.14,0 0,383.14 0,512 128.86,512 " style="fill:#F5F5F5;"/>
  <polygon points="512,80.546 512,0 431.455,0 0,431.454 0,512 80.545,512 " style="fill:#FF4B55;"/>
  <g>
	<path d="M100.241,76.413c9.889,0,18.841,4.006,25.324,10.484l3.555-24.677l-19.611,15.432l-9.268-23.17   l-9.268,23.17L71.362,62.221l3.555,24.677C81.4,80.419,90.353,76.413,100.241,76.413z"
        style="fill:#FFE15A;"/>
    <path d="M74.897,137.565c-6.478-6.483-10.484-15.435-10.484-25.324S68.419,93.4,74.897,86.917L50.22,83.362   l15.432,19.611l-23.17,9.268l23.17,9.268L50.22,141.12L74.897,137.565z"
          style="fill:#FFE15A;"/>
    <path d="M158,112.241l-23.17-9.268l15.432-19.611l-24.676,3.555c6.478,6.483,10.484,15.435,10.484,25.324   c0,9.888-4.006,18.841-10.484,25.324l24.676,3.555l-15.432-19.611L158,112.241z"
          style="fill:#FFE15A;"/>
    <path d="M100.241,148.07c-9.889,0-18.841-4.006-25.324-10.484l-3.555,24.676l19.611-15.432l9.268,23.17   l9.268-23.17l19.611,15.432l-3.555-24.676C119.083,144.063,110.13,148.07,100.241,148.07z"
          style="fill:#FFE15A;"/>
    <circle cx="100.24" cy="112.24" r="29.25" style="fill:#FFE15A;"/>
</g>
  <g>
</g>
  <g>
</g>
  <g>
</g>
  <g>
</g>
  <g>
</g>
  <g>
</g>
  <g>
</g>
  <g>
</g>
  <g>
</g>
  <g>
</g>
  <g>
</g>
  <g>
</g>
  <g>
</g>
  <g>
</g>
  <g>
</g>
</svg>
