<?xml version="1.0" encoding="iso-8859-1"?>
<!-- Generator: Adobe Illustrator 19.0.0, SVG Export Plug-In . SVG Version: 6.00 Build 0)  -->
<svg id="Layer_1" style="enable-background:new 0 0 512 512;" version="1.1" viewBox="0 0 512 512"
     x="0px" xml:space="preserve" xmlns="http://www.w3.org/2000/svg" y="0px">
<rect height="512" style="fill:#41479B;" width="512"/>
  <g>
	<rect height="26.947" style="fill:#F5F5F5;" width="512" y="67.37"/>
    <rect height="26.947" style="fill:#F5F5F5;" width="512" y="417.68"/>
</g>
  <rect height="323.37" style="fill:#FF4B55;" width="512" y="94.32"/>
  <circle cx="163.21" cy="256" r="107.79" style="fill:#F5F5F5;"/>
  <path d="M166.081,157.866l21.623,64.835l68.344,0.53c2.907,0.023,4.113,3.733,1.774,5.46l-54.98,40.6  l20.616,65.163c0.877,2.772-2.279,5.065-4.644,3.374l-55.603-39.743l-55.603,39.743c-2.365,1.691-5.521-0.602-4.644-3.374  l20.616-65.163l-54.98-40.6c-2.339-1.727-1.133-5.437,1.774-5.46l68.344-0.53l21.623-64.835  C161.26,155.108,165.161,155.108,166.081,157.866z"
        style="fill:#FF4B55;"/>
  <g>
</g>
  <g>
</g>
  <g>
</g>
  <g>
</g>
  <g>
</g>
  <g>
</g>
  <g>
</g>
  <g>
</g>
  <g>
</g>
  <g>
</g>
  <g>
</g>
  <g>
</g>
  <g>
</g>
  <g>
</g>
  <g>
</g>
</svg>
