<?xml version="1.0" encoding="iso-8859-1"?>
<!-- Generator: Adobe Illustrator 19.0.0, SVG Export Plug-In . SVG Version: 6.00 Build 0)  -->
<svg id="Layer_1" style="enable-background:new 0 0 512 512;" version="1.1" viewBox="0 0 512 512"
     x="0px" xml:space="preserve" xmlns="http://www.w3.org/2000/svg" y="0px">
<rect height="512" style="fill:#73AF00;" width="170.67"/>
  <rect height="512" style="fill:#FFE15A;" width="170.67" x="170.67"/>
  <rect height="512" style="fill:#FF4B55;" width="170.67" x="341.33"/>
  <path d="M258.04,205.779l11.693,35.062l36.959,0.287c2.067,0.016,2.924,2.653,1.261,3.881l-29.732,21.956  l11.148,35.239c0.623,1.97-1.62,3.6-3.301,2.399L256,283.11l-30.069,21.492c-1.681,1.202-3.925-0.428-3.301-2.399l11.148-35.239  l-29.732-21.956c-1.663-1.228-0.806-3.865,1.261-3.881l36.959-0.287l11.693-35.062C254.613,203.819,257.387,203.819,258.04,205.779z  "
        style="fill:#73AF00;"/>
  <g>
</g>
  <g>
</g>
  <g>
</g>
  <g>
</g>
  <g>
</g>
  <g>
</g>
  <g>
</g>
  <g>
</g>
  <g>
</g>
  <g>
</g>
  <g>
</g>
  <g>
</g>
  <g>
</g>
  <g>
</g>
  <g>
</g>
</svg>
