<?xml version="1.0" encoding="iso-8859-1"?>
<!-- Generator: Adobe Illustrator 19.0.0, SVG Export Plug-In . SVG Version: 6.00 Build 0)  -->
<svg id="Layer_1" style="enable-background:new 0 0 512 512;" version="1.1" viewBox="0 0 512 512"
     x="0px" xml:space="preserve" xmlns="http://www.w3.org/2000/svg" y="0px">
<polygon points="0,144.651 0,367.353 140.652,256 " style="fill:#464655;"/>
  <polygon points="512,175.158 512,0 77.772,0 299.022,175.158 " style="fill:#FF4B55;"/>
  <polygon points="299.02,336.842 77.765,512 512,512 512,336.842 " style="fill:#41479B;"/>
  <polygon
    points="512,309.895 512,202.105 289.646,202.105 34.357,0 0,0 0,110.282 184.066,256 0,401.722   0,512 34.349,512 289.645,309.895 "
    style="fill:#73AF00;"/>
  <polygon points="512,202.105 512,175.158 299.022,175.158 77.772,0 55.316,0 34.357,0 289.646,202.105 "
           style="fill:#F5F5F5;"/>
  <polygon points="0,110.282 0,144.651 140.652,256 0,367.353 0,401.722 184.066,256 " style="fill:#FFE15A;"/>
  <polygon points="512,336.842 512,309.895 289.645,309.895 34.349,512 55.316,512 77.765,512 299.02,336.842   "
           style="fill:#F5F5F5;"/>
  <g>
</g>
  <g>
</g>
  <g>
</g>
  <g>
</g>
  <g>
</g>
  <g>
</g>
  <g>
</g>
  <g>
</g>
  <g>
</g>
  <g>
</g>
  <g>
</g>
  <g>
</g>
  <g>
</g>
  <g>
</g>
  <g>
</g>
</svg>
