<?xml version="1.0" encoding="iso-8859-1"?>
<!-- Generator: Adobe Illustrator 19.0.0, SVG Export Plug-In . SVG Version: 6.00 Build 0)  -->
<svg id="Layer_1" style="enable-background:new 0 0 512 512;" version="1.1" viewBox="0 0 512 512"
     x="0px" xml:space="preserve" xmlns="http://www.w3.org/2000/svg" y="0px">
<g>
	<rect height="102.4" style="fill:#73AF00;" width="512"/>
  <rect height="102.4" style="fill:#73AF00;" width="512" y="204.8"/>
</g>
  <rect height="102.4" style="fill:#FFE15A;" width="512" y="102.4"/>
  <rect height="102.4" style="fill:#73AF00;" width="512" y="409.6"/>
  <rect height="102.4" style="fill:#FFE15A;" width="512" y="307.2"/>
  <path d="M301.895,307.2H0V0h309.895v299.2C309.895,303.618,306.313,307.2,301.895,307.2z" style="fill:#FF4B55;"/>
  <path d="M151.616,72.288l-19.472,58.385l-61.545,0.477c-3.374,0.026-4.773,4.332-2.059,6.336l49.51,36.561  l-18.565,58.68c-1.018,3.217,2.645,5.878,5.39,3.916l50.071-35.789l50.071,35.789c2.745,1.962,6.408-0.699,5.39-3.916l-18.565-58.68  l49.51-36.561c2.714-2.004,1.315-6.31-2.059-6.336l-61.545-0.477l-19.472-58.385C157.211,69.087,152.684,69.087,151.616,72.288z"
        style="fill:#F5F5F5;"/>
  <g>
</g>
  <g>
</g>
  <g>
</g>
  <g>
</g>
  <g>
</g>
  <g>
</g>
  <g>
</g>
  <g>
</g>
  <g>
</g>
  <g>
</g>
  <g>
</g>
  <g>
</g>
  <g>
</g>
  <g>
</g>
  <g>
</g>
</svg>
