<?xml version="1.0" encoding="iso-8859-1"?>
<!-- Generator: Adobe Illustrator 19.0.0, SVG Export Plug-In . SVG Version: 6.00 Build 0)  -->
<svg id="Layer_1" style="enable-background:new 0 0 512 512;" version="1.1" viewBox="0 0 512 512"
     x="0px" xml:space="preserve" xmlns="http://www.w3.org/2000/svg" y="0px">
<rect height="512" style="fill:#F5F5F5;" width="512"/>
  <rect height="56.889" style="fill:#4173CD;" width="317.76" x="194.24" y="56.889"/>
  <rect height="56.889" style="fill:#F5F5F5;" width="512" y="113.78"/>
  <rect height="56.889" style="fill:#4173CD;" width="317.76" x="194.24" y="170.67"/>
  <rect height="56.889" style="fill:#F5F5F5;" width="512" y="227.56"/>
  <rect height="56.889" style="fill:#4173CD;" width="512" y="284.44"/>
  <rect height="56.889" style="fill:#F5F5F5;" width="512" y="341.33"/>
  <rect height="56.889" style="fill:#4173CD;" width="512" y="398.22"/>
  <polygon points="97.646,35.665 120.187,139.961 155.456,125.352 " style="fill:#FFE15A;"/>
  <polygon points="97.646,35.665 137.821,132.656 120.187,139.961 " style="fill:#FFCD5A;"/>
  <polygon points="185.301,247.282 162.761,142.987 127.491,157.596 " style="fill:#FFE15A;"/>
  <polygon points="185.301,247.282 145.126,150.291 162.761,142.987 " style="fill:#FFCD5A;"/>
  <polygon points="247.282,97.646 142.987,120.187 157.596,155.456 " style="fill:#FFE15A;"/>
  <polygon points="247.282,97.646 150.291,137.821 142.987,120.187 " style="fill:#FFCD5A;"/>
  <polygon points="35.665,185.301 139.961,162.761 125.352,127.491 " style="fill:#FFE15A;"/>
  <polygon points="35.665,185.301 132.656,145.126 139.961,162.761 " style="fill:#FFCD5A;"/>
  <polygon points="185.301,35.665 127.491,125.352 162.761,139.961 " style="fill:#FFE15A;"/>
  <polygon points="185.301,35.665 145.126,132.656 127.491,125.352 " style="fill:#FFCD5A;"/>
  <polygon points="97.646,247.282 155.456,157.596 120.187,142.987 " style="fill:#FFE15A;"/>
  <polygon points="97.646,247.282 137.821,150.291 155.456,157.596 " style="fill:#FFCD5A;"/>
  <polygon points="247.282,185.301 157.596,127.491 142.987,162.761 " style="fill:#FFE15A;"/>
  <polygon points="247.282,185.301 150.291,145.126 157.596,127.491 " style="fill:#FFCD5A;"/>
  <polygon points="35.665,97.646 125.352,155.456 139.961,120.187 " style="fill:#FFE15A;"/>
  <polygon points="35.665,97.646 132.656,137.821 125.352,155.456 " style="fill:#FFCD5A;"/>
  <rect height="284" style="fill:#F5F5F5;" width="283"/>
  <polygon points="141.474,26.947 122.386,131.93 160.561,131.93 " style="fill:#FFE15A;"/>
  <polygon points="141.474,26.947 141.474,131.93 122.386,131.93 " style="fill:#FFCD5A;"/>
  <polygon points="141.474,256 160.561,151.018 122.386,151.018 " style="fill:#FFE15A;"/>
  <polygon points="141.474,256 141.474,151.018 160.561,151.018 " style="fill:#FFCD5A;"/>
  <polygon points="256,141.474 151.018,122.386 151.018,160.561 " style="fill:#FFE15A;"/>
  <polygon points="256,141.474 151.018,141.474 151.018,122.386 " style="fill:#FFCD5A;"/>
  <polygon points="26.947,141.474 131.93,160.561 131.93,122.386 " style="fill:#FFE15A;"/>
  <polygon points="26.947,141.474 131.93,141.474 131.93,160.561 " style="fill:#FFCD5A;"/>
  <polygon points="222.456,60.491 134.725,121.228 161.719,148.222 " style="fill:#FFE15A;"/>
  <polygon points="222.456,60.491 148.222,134.725 134.725,121.228 " style="fill:#FFCD5A;"/>
  <polygon points="60.491,222.456 148.222,161.719 121.228,134.725 " style="fill:#FFE15A;"/>
  <polygon points="60.491,222.456 134.725,148.222 148.222,161.719 " style="fill:#FFCD5A;"/>
  <polygon points="222.456,222.456 161.719,134.725 134.725,161.719 " style="fill:#FFE15A;"/>
  <polygon points="222.456,222.456 148.222,148.222 161.719,134.725 " style="fill:#FFCD5A;"/>
  <polygon points="60.491,60.491 121.228,148.222 148.222,121.228 " style="fill:#FFE15A;"/>
  <polygon points="60.491,60.491 134.725,134.725 121.228,148.222 " style="fill:#FFCD5A;"/>
  <circle cx="141.47" cy="141.47" r="38.17" style="fill:#FFE15A;"/>
  <g>
</g>
  <g>
</g>
  <g>
</g>
  <g>
</g>
  <g>
</g>
  <g>
</g>
  <g>
</g>
  <g>
</g>
  <g>
</g>
  <g>
</g>
  <g>
</g>
  <g>
</g>
  <g>
</g>
  <g>
</g>
  <g>
</g>
</svg>
